<mxfile host="app.diagrams.net" modified="2023-06-27T00:08:28.432Z" agent="Mozilla/5.0 (Windows NT 10.0; Win64; x64) AppleWebKit/537.36 (KHTML, like Gecko) Chrome/114.0.0.0 Safari/537.36" version="21.5.0" etag="_tqIaWPw2Bal2_nwvwcG" type="google">
  <diagram name="PÃ¡gina-1" id="EA0CYChFx_9yTMU-1uNZ">
    <mxGraphModel>
      <root>
        <mxCell id="0" />
        <mxCell id="1" parent="0" />
      </root>
    </mxGraphModel>
  </diagram>
</mxfile>
